<svg xmlns="http://www.w3.org/2000/svg" viewBox="0 0 200 200" fill="none">
  <!-- Background -->
  <rect width="200" height="200" rx="16" fill="#FFF7ED"/>
  <!-- Container (small) -->
  <path d="M70 180 L75 100 L125 100 L130 180 Z" fill="#DC2626"/>
  <path d="M75 100 L80 95 L120 95 L125 100 Z" fill="#EF4444"/>
  <!-- Fries -->
  <rect x="82" y="60" width="8" height="45" rx="2" fill="#FCD34D" transform="rotate(-5 86 82)"/>
  <rect x="92" y="55" width="8" height="50" rx="2" fill="#FBBF24"/>
  <rect x="102" y="58" width="8" height="47" rx="2" fill="#FCD34D" transform="rotate(5 106 81)"/>
  <rect x="112" y="62" width="8" height="43" rx="2" fill="#FBBF24" transform="rotate(8 116 83)"/>
  <rect x="77" y="65" width="8" height="40" rx="2" fill="#FBBF24" transform="rotate(-8 81 85)"/>
  <!-- Size label -->
  <circle cx="100" cy="155" r="15" fill="white"/>
  <text x="100" y="160" text-anchor="middle" font-family="system-ui" font-size="14" font-weight="bold" fill="#DC2626">S</text>
</svg>
