<svg xmlns="http://www.w3.org/2000/svg" viewBox="0 0 200 200" fill="none">
  <!-- Background -->
  <rect width="200" height="200" rx="16" fill="#FFF7ED"/>
  <!-- Container (large) -->
  <path d="M50 185 L60 80 L140 80 L150 185 Z" fill="#DC2626"/>
  <path d="M60 80 L66 73 L134 73 L140 80 Z" fill="#EF4444"/>
  <!-- Fries (most) -->
  <rect x="58" y="30" width="9" height="55" rx="2" fill="#FCD34D" transform="rotate(-12 62 57)"/>
  <rect x="70" y="25" width="9" height="60" rx="2" fill="#FBBF24" transform="rotate(-6 74 55)"/>
  <rect x="82" y="22" width="9" height="63" rx="2" fill="#FCD34D" transform="rotate(-2 86 53)"/>
  <rect x="94" y="20" width="9" height="65" rx="2" fill="#FBBF24"/>
  <rect x="106" y="22" width="9" height="63" rx="2" fill="#FCD34D" transform="rotate(2 110 53)"/>
  <rect x="118" y="25" width="9" height="60" rx="2" fill="#FBBF24" transform="rotate(6 122 55)"/>
  <rect x="130" y="30" width="9" height="55" rx="2" fill="#FCD34D" transform="rotate(12 134 57)"/>
  <rect x="48" y="38" width="9" height="47" rx="2" fill="#FBBF24" transform="rotate(-15 52 61)"/>
  <rect x="140" y="38" width="9" height="47" rx="2" fill="#FBBF24" transform="rotate(15 144 61)"/>
  <!-- Size label -->
  <circle cx="100" cy="145" r="20" fill="white"/>
  <text x="100" y="152" text-anchor="middle" font-family="system-ui" font-size="18" font-weight="bold" fill="#DC2626">L</text>
</svg>
